{"title":"Fasandraeberne.MultiSubs.1080p.BluRay.DTS.x264-pir8","uid":11677162,"size":3719150985,"categoryP":"video","categoryS":"hd___movies","magnet":"?xt=urn:btih:a3c1ecb7b4b4f5e58f8a8465eec13602a9abf5f9&amp;dn=Fasandraeberne.MultiSubs.1080p.BluRay.DTS.x264-pir8&amp;tr=udp%3A%2F%2Ftracker.openbittorrent.com%3A80&amp;tr=udp%3A%2F%2Fopen.demonii.com%3A1337&amp;tr=udp%3A%2F%2Ftracker.coppersurfer.tk%3A6969&amp;tr=udp%3A%2F%2Fexodus.desync.com%3A6969","seeders":31,"leechers":14,"uploader":"z97","files":3,"time":1422918661,"description":"                        .:L5ZOMOZ1L:                        \n                    iSB@B@B@B@B@B@B@@@MF:                   \n                vM@B@@@O5r:.    ..:rFM@B@B@M7               \n             rB@B@BL.                   ,1@@B@Mi            \n           L@B@Br                           vB@B@7          \n         vB@B0     @B:                        .8@@@r        \n        @B@0       B@:                          .O@@@       \n      7@B@,        @@ur1P8OB@@B@MMZPu7,           :@B@i     \n     S@BG       :jNB@@@B@B@B@B@B@B@@@B@B@0r         BB@j    \n    P@B1           @B: ,j@B@MMOOOMOMOMM@B@B@0.       NB@U   \n   j@B1            B@,    .O@BM8O8OOOOOOMOBB@BX       NB@7  \n  :@BO             @Bi      7@BMOOOOOO8OOOOMM@B@       @B@  \n  @B@              B@:       v@MM8O8O8O8O8O8OOBB8       @B@ \n :B@7              @Bi        B@OOOO8OOO8OOMOOO@B,      u@B \n Z@B               B@:        0BM8O8OOO8OOOOO8MM@F       @@L\n @@0               @Bi        0@OOOOOO8O8OOOOO8MBM       MBZ\njB@r               B@:        @BM8O8O8O8O8O8O8OM@O       j@8\n0@B:               @Bi       rBM8O8O8O8MOMOOOMO@Bi       7BM\nEB@:               B@:      iB@OM8O8O8O8MOMOBB@@v        r@O\nL@Bv               @@:     ZB@OMOMOMOMOMM@@@B@P          UBO\n.B@0               B@.  :Z@BBMMMBM@B@B@B@B@ki            O@N\n Z@@               @Brr@@@B@@@B@@@B@B0jr.                @BL\n ,@BL              B@@@B@B@B81vi,                       5B@ \n  B@@             .@B@BOr.                              B@M \n  ,B@O            @B@G                                 B@B  \n   LB@S           B@2                                 Z@Br  \n    SB@F          @@                                 Z@@Y   \n     1@@O         BL                                B@Bv    \n      rB@@:       M7                              rB@B:     \n        B@BM      ,J                            .@@@O       \n         r@B@Z,    .                          :M@@@:        \n           vB@B@L                           Y@@@Br          \n             :M@@B@2:                   ik@@@@8:            \n                iOB@@@@B5v::.. ..::vFBB@@@BZi               \n                    .;5O@B@B@B@B@B@B@O1i.                   \n\n\nâ–ˆâ–€------------------------------------------------------------â–€â–ˆ\nâ–ˆ                        RELEASE NOTES                         â–ˆ \nâ–ˆâ–„------------------------------------------------------------â–„â–ˆ                                      \n\n        FasanDraeberne.MultiSubs.1080p.BluRay.x264-pir8\n            \niMDB url                       : http://www.imdb.com/title/tt3140100\niMDB Rating                    : 7.2/10 from 2,061 user\nYear                           : 2014\nGenre                          : Crime | Thriller\nSource                         : Retail BluRay\nSubs                           : DK/FIN/NOR/SWE/ENG\n\n\nâ–ˆâ–€------------------------------------------------------------â–€â–ˆ\nâ–ˆ                        PLOT SUMMARY                          â–ˆ\nâ–ˆâ–„------------------------------------------------------------â–„â–ˆ                                      \n\nThe murder of young twins initially implicates a group of upper\nclass students as the killers, though the case takes a turn or\ntwo from its starting point.\n \nâ–ˆâ–€------------------------------------------------------------â–€â–ˆ\nâ–ˆ                     RELEASE INFORMATION                      â–ˆ\nâ–ˆâ–„------------------------------------------------------------â–„â–ˆ\n\nVideo\nID                             : 1\nFormat                         : AVC\nFormat/Info                    : Advanced Video Codec\nFormat profile                 : &lt;a class=&quot;__cf_email__&quot; href=&quot;/cdn-cgi/l/email-protection&quot; data-cfemail=&quot;561e3f313e161a627867&quot;&gt;[email&amp;#160;protected]&lt;/a&gt;&lt;script cf-hash='f9e31' type=&quot;text/javascript&quot;&gt;\n/* &lt;![CDATA[ */!function(){try{var t=&quot;currentScript&quot;in document?document.currentScript:function(){for(var t=document.getElementsByTagName(&quot;script&quot;),e=t.length;e--;)if(t[e].getAttribute(&quot;cf-hash&quot;))return t[e]}();if(t&amp;&amp;t.previousSibling){var e,r,n,i,c=t.previousSibling,a=c.getAttribute(&quot;data-cfemail&quot;);if(a){for(e=&quot;&quot;,r=parseInt(a.substr(0,2),16),n=2;a.length-n;n+=2)i=parseInt(a.substr(n,2),16)^r,e+=String.fromCharCode(i);e=document.createTextNode(e),c.parentNode.replaceChild(e,c)}}}catch(u){}}();/* ]]&gt; */&lt;/script&gt;\nFormat settings, CABAC         : Yes\nFormat settings, ReFrames      : 5 frames\nCodec ID                       : V_MPEG4/ISO/AVC\nDuration                       : 1h 59mn\nBit rate                       : 2 525 Kbps\nWidth                          : 1 920 pixels\nHeight                         : 816 pixels\nDisplay aspect ratio           : 2.35:1\nFrame rate mode                : Constant\nFrame rate                     : 24.000 fps\nColor space                    : YUV\nChroma subsampling             : 4:2:0\nBit depth                      : 8 bits\nScan type                      : Progressive\nBits/(Pixel*Frame)             : 0.067\nStream size                    : 2.11 GiB (61%)\nDefault                        : Yes\nForced                         : No\n\n\nAudio\nID                             : 2\nFormat                         : DTS\nFormat/Info                    : Digital Theater Systems\nMode                           : 16\nFormat settings, Endianness    : Big\nCodec ID                       : A_DTS\nDuration                       : 1h 59mn\nBit rate mode                  : Constant\nBit rate                       : 1 509 Kbps\nChannel(s)                     : 6 channels\nChannel positions              : Front: L C R, Side: L R, LFE\nSampling rate                  : 48.0 KHz\nBit depth                      : 24 bits\nCompression mode               : Lossy\nStream size                    : 1.26 GiB (37%)\nTitle                          : Surround\nLanguage                       : Danish\nDefault                        : Yes\nForced                         : No\n\n\nText\nFormat                         : PGS\nMuxing mode                    : zlib\nCodec ID                       : S_HDMV/PGS\nCodec ID/Info                  : The same subtitle format used on BDs/HD-DVDs\nLanguage                       : Dan/Fin/Nor/Swe/Eng\nDefault                        : No\nForced                         : No\nDURATION                       : 01:58:45.041\nWRITING_APP                    : mkvmerge v7.5.0 ('Glass Culture') 64bit","torrent":{"xt":"urn:btih:a3c1ecb7b4b4f5e58f8a8465eec13602a9abf5f9","amp;dn":"Fasandraeberne.MultiSubs.1080p.BluRay.DTS.x264-pir8","amp;tr":["udp%3A%2F%2Ftracker.openbittorrent.com%3A80","udp%3A%2F%2Fopen.demonii.com%3A1337","udp%3A%2F%2Ftracker.coppersurfer.tk%3A6969","udp%3A%2F%2Fexodus.desync.com%3A6969"],"infoHash":"a3c1ecb7b4b4f5e58f8a8465eec13602a9abf5f9","infoHashBuffer":{"type":"Buffer","data":[163,193,236,183,180,180,245,229,143,138,132,101,238,193,54,2,169,171,245,249]},"announce":[],"urlList":[]}}